# xmcd
#
# Track frame offsets:
#  150
#  61122
#  85329
#  120752
#  148522
#  173964
#  206826
#  234569
#  267654
#  290200
#  321673
#
# Disc length: 4720 seconds
#
# Revision: 0
# Processed by: cddbd v1.5.1PL0 Copyright (c) Steve Scherf et al.
# Submitted via: AltoMP3_Maker 3.0
#
DISCID=ac126e0b
DTITLE=Prem Joshua - Best Of Prem Joshua Vo.1
DYEAR=1900
DGENRE=
TTITLE0=Sky Kisses Earth
TTITLE1=Wild Ghunghu
TTITLE2=Daia
TTITLE3=Ferry Man's Tale
TTITLE4=Remember This
TTITLE5=Habibi
TTITLE6=New Kafi
TTITLE7=Shiva Moon
TTITLE8=Seventh Eclipse
TTITLE9=Darbari NYC
TTITLE10=Tangerine Thumari
EXTD=
EXTT0=
EXTT1=
EXTT2=
EXTT3=
EXTT4=
EXTT5=
EXTT6=
EXTT7=
EXTT8=
EXTT9=
EXTT10=
PLAYORDER=
